[img]http://img853.imageshack.us/img853/771/unkown.jpg[/img]
[code]
Unknown 2011 DVDRiP XViD AC3 - IMAGiNE

Ripper ...........: IMAGiNE       IMDB Rating.......: 6.8/10                             
Video Codec.......: XVID          Release Date......: 24/05/11
Audio Codec.......: AC3           Theatre Date......: 18/02/11
Audio Bitrate.....: 256           Runtime.......: 1h 53mn
Subtitles.........: NIL           Language..........: ENGLISH
Resolution......: 720 x 304       IMDb URL..........: http://www.imdb.com/title/tt1401152/

DETAILS:

Video
ID                               : 0
Format                           : MPEG-4 Visual
Format profile                   : Advanced Simple@L5
Format settings, BVOP            : 2
Format settings, QPel            : No
Format settings, GMC             : No warppoints
Format settings, Matrix          : Default (MPEG)
Muxing mode                      : Packed bitstream
Codec ID                         : XVID
Codec ID/Hint                    : XviD
Duration                         : 1h 53mn
Bit rate                         : 1 466 Kbps
Width                            : 720 pixels
Height                           : 304 pixels
Display aspect ratio             : 2.35:1
Frame rate                       : 29.970 fps
Color space                      : YUV
Chroma subsampling               : 4:2:0
Bit depth                        : 8 bits
Scan type                        : Progressive
Compression mode                 : Lossy
Bits/(Pixel*Frame)               : 0.223
Stream size                      : 1.16 GiB (85%)
Writing library                  : XviD 61

Audio
ID                               : 1
Format                           : AC-3
Format/Info                      : Audio Coding 3
Mode extension                   : CM (complete main)
Codec ID                         : 2000
Duration                         : 1h 53mn
Bit rate mode                    : Constant
Bit rate                         : 256 Kbps
Channel(s)                       : 2 channels
Channel positions                : Front: L R
Sampling rate                    : 48.0 KHz
Bit depth                        : 16 bits
Compression mode                 : Lossy
Stream size                      : 207 MiB (15%)
Alignment                        : Aligned on interleaves
Interleave, duration             : 33 ms (1.00 video frame)
Interleave, preload duration     : 512 ms

Plot:
A man awakens from a coma, only to discover that someone has taken on his identity and that no one, (not even his wife), believes him. With the help of a young woman, he sets out to prove who he is.

SOURCES:
VIDEO: ............. KINOPARK
AUDIO: ............. KINOPARK

NOTES:
IMAGiNE bringing you another release..........
Unknown............
Ok where to begin......
source was nice, also had english studio audio since it was ntsc and came with the nice audio we went with the dvdrip tag Anyhow, so we made a script to crop, resize and so on......

The audio was then remuxed to our encode Enjoy Folks!
[/code]
Screens:
[img]http://img820.imageshack.us/img820/5269/8hg336h.jpg[/img]
[img]http://img219.imageshack.us/img219/3308/8hg336h4.jpg[/img]
[img]http://img801.imageshack.us/img801/5553/8hg336h3.jpg[/img]